<svg xmlns="http://www.w3.org/2000/svg" width="300" height="87.84" viewBox="0 0 300 87.84"><path d="M0,0H300V48.973c0,21.466-18,38.867-40.214,38.867H0Z" fill="#007aff"/><path d="M9.425-24.43v-8.363H14c3.255,0,4.7,1.566,4.7,4.2,0,2.554-1.442,4.161-4.7,4.161Zm15.2-4.161c0-4.985-3.461-8.9-10.382-8.9H3.657V-8.733H9.425V-19.774h4.82C21.661-19.774,24.627-24.224,24.627-28.591Zm11,1.4c2.966,0,5.356,1.9,5.438,4.9H30.23A5.3,5.3,0,0,1,35.628-27.19ZM46.463-15.9H40.242a4.7,4.7,0,0,1-4.573,2.76,5.34,5.34,0,0,1-5.479-5.273H46.875a13.482,13.482,0,0,0,.165-2.225c0-6.8-4.656-11.289-11.247-11.289-6.757,0-11.453,4.573-11.453,11.783,0,7.169,4.82,11.783,11.453,11.783C41.437-8.362,45.227-11.7,46.463-15.9Zm11.7-11.289c2.966,0,5.356,1.9,5.438,4.9H52.766A5.3,5.3,0,0,1,58.163-27.19ZM69-15.9H62.778a4.7,4.7,0,0,1-4.573,2.76,5.34,5.34,0,0,1-5.479-5.273H69.411a13.482,13.482,0,0,0,.165-2.225c0-6.8-4.656-11.289-11.247-11.289-6.757,0-11.453,4.573-11.453,11.783,0,7.169,4.82,11.783,11.453,11.783C63.973-8.362,67.763-11.7,69-15.9Zm7.663-4.2c0-4.408,2.06-5.727,5.479-5.727h1.524v-6.056a7.916,7.916,0,0,0-7,3.873v-3.543H70.894V-8.733h5.768ZM90.422-24.43v-8.363H95c3.255,0,4.7,1.566,4.7,4.2,0,2.554-1.442,4.161-4.7,4.161Zm15.2-4.161c0-4.985-3.461-8.9-10.382-8.9H84.654V-8.733h5.768V-19.774h4.82C102.659-19.774,105.625-24.224,105.625-28.591Zm-.288,8.363c0,7.127,4.614,11.865,10.382,11.865A9,9,0,0,0,123.3-12.07v3.337h5.809V-31.557H123.3V-28.3a9.026,9.026,0,0,0-7.539-3.626C109.951-31.928,105.336-27.355,105.336-20.227Zm17.963.082c0,4.326-2.884,6.715-6.056,6.715-3.09,0-6.015-2.472-6.015-6.8s2.925-6.633,6.015-6.633C120.415-26.86,123.3-24.471,123.3-20.145Zm8.569,11.412h5.768V-39.22h-5.768Z" transform="translate(115.21 70.143)" fill="#fff"/></svg>